<svg width="62" height="24" viewBox="0 0 62 24" fill="none" xmlns="http://www.w3.org/2000/svg">
<path d="M0.321023 19V1.54545H7.59943C8.90625 1.54545 10 1.73011 10.8807 2.09943C11.767 2.46875 12.4318 2.98579 12.875 3.65057C13.3239 4.31534 13.5483 5.08523 13.5483 5.96023C13.5483 6.625 13.4091 7.21875 13.1307 7.74148C12.8523 8.25852 12.4688 8.6875 11.9801 9.02841C11.4915 9.36932 10.9261 9.60795 10.2841 9.74432V9.91477C10.9886 9.94886 11.6392 10.1392 12.2358 10.4858C12.8381 10.8324 13.321 11.3153 13.6847 11.9347C14.0483 12.5483 14.2301 13.2756 14.2301 14.1165C14.2301 15.054 13.9915 15.892 13.5142 16.6307C13.0369 17.3636 12.3466 17.9432 11.4432 18.3693C10.5398 18.7898 9.44318 19 8.15341 19H0.321023ZM4.53977 15.5994H7.14773C8.0625 15.5994 8.7358 15.4261 9.16761 15.0795C9.60511 14.733 9.82386 14.25 9.82386 13.6307C9.82386 13.1818 9.71875 12.7955 9.50852 12.4716C9.2983 12.142 9 11.8892 8.61364 11.7131C8.22727 11.5312 7.7642 11.4403 7.22443 11.4403H4.53977V15.5994ZM4.53977 8.72159H6.875C7.33523 8.72159 7.74432 8.64489 8.10227 8.49148C8.46023 8.33807 8.73864 8.11648 8.9375 7.8267C9.14205 7.53693 9.24432 7.1875 9.24432 6.77841C9.24432 6.19318 9.03693 5.73295 8.62216 5.39773C8.20739 5.0625 7.64773 4.89489 6.94318 4.89489H4.53977V8.72159Z" fill="#39FF14"/>
<path d="M16.2585 19V5.90909H20.4261V19H16.2585ZM18.3466 4.38352C17.7614 4.38352 17.2585 4.19034 16.8381 3.80398C16.4176 3.41193 16.2074 2.94034 16.2074 2.3892C16.2074 1.84375 16.4176 1.37784 16.8381 0.991477C17.2585 0.599431 17.7614 0.403408 18.3466 0.403408C18.9375 0.403408 19.4403 0.599431 19.8551 0.991477C20.2756 1.37784 20.4858 1.84375 20.4858 2.3892C20.4858 2.94034 20.2756 3.41193 19.8551 3.80398C19.4403 4.19034 18.9375 4.38352 18.3466 4.38352ZM23.0788 5.90909H27.2464V19.5455C27.2464 20.625 27.0249 21.483 26.5817 22.1193C26.1442 22.7557 25.5249 23.2131 24.7237 23.4915C23.9226 23.7699 22.9766 23.9091 21.8857 23.9091C21.7379 23.9091 21.5987 23.9063 21.468 23.9006C21.3374 23.8949 21.1953 23.8892 21.0419 23.8835V20.7216C21.1442 20.733 21.2351 20.7415 21.3146 20.7472C21.3942 20.7528 21.4737 20.7557 21.5533 20.7557C22.1271 20.7557 22.5249 20.6477 22.7464 20.4318C22.968 20.2216 23.0788 19.8977 23.0788 19.4602V5.90909ZM25.1584 4.38352C24.5732 4.38352 24.0703 4.19034 23.6499 3.80398C23.2294 3.41193 23.0192 2.94034 23.0192 2.3892C23.0192 1.84375 23.2294 1.37784 23.6499 0.991477C24.0703 0.599431 24.5732 0.403408 25.1584 0.403408C25.7493 0.403408 26.2521 0.599431 26.6669 0.991477C27.0874 1.37784 27.2976 1.84375 27.2976 2.3892C27.2976 2.94034 27.0874 3.41193 26.6669 3.80398C26.2521 4.19034 25.7493 4.38352 25.1584 4.38352ZM33.5895 19.2216C32.7543 19.2216 32.0128 19.0824 31.3651 18.804C30.723 18.5199 30.2145 18.0937 29.8395 17.5256C29.4702 16.9517 29.2855 16.233 29.2855 15.3693C29.2855 14.642 29.4134 14.0284 29.669 13.5284C29.9247 13.0284 30.277 12.6222 30.7259 12.3097C31.1747 11.9972 31.6918 11.7614 32.277 11.6023C32.8622 11.4375 33.4872 11.3267 34.152 11.2699C34.8963 11.2017 35.4957 11.1307 35.9503 11.0568C36.4048 10.9773 36.7344 10.8665 36.9389 10.7244C37.1491 10.5767 37.2543 10.3693 37.2543 10.1023V10.0597C37.2543 9.62216 37.1037 9.28409 36.8026 9.04545C36.5014 8.80682 36.0952 8.6875 35.5838 8.6875C35.0327 8.6875 34.5895 8.80682 34.2543 9.04545C33.919 9.28409 33.706 9.61364 33.6151 10.0341L29.7713 9.89773C29.8849 9.10227 30.1776 8.39205 30.6491 7.76705C31.1264 7.13636 31.7798 6.64205 32.6094 6.28409C33.4446 5.92045 34.4474 5.73864 35.6179 5.73864C36.4531 5.73864 37.223 5.83807 37.9276 6.03693C38.6321 6.23011 39.2457 6.5142 39.7685 6.8892C40.2912 7.25852 40.6946 7.71307 40.9787 8.25284C41.2685 8.79261 41.4134 9.40909 41.4134 10.1023V19H37.4929V17.1761H37.3906C37.1577 17.6193 36.8594 17.9943 36.4957 18.3011C36.1378 18.608 35.7145 18.8381 35.2259 18.9915C34.7429 19.1449 34.1974 19.2216 33.5895 19.2216ZM34.8764 16.4943C35.3253 16.4943 35.7287 16.4034 36.0866 16.2216C36.4503 16.0398 36.7401 15.7898 36.956 15.4716C37.1719 15.1477 37.2798 14.7727 37.2798 14.3466V13.1023C37.1605 13.1648 37.0156 13.2216 36.8452 13.2727C36.6804 13.3239 36.4986 13.3722 36.2997 13.4176C36.1009 13.4631 35.8963 13.5028 35.6861 13.5369C35.4759 13.571 35.2741 13.6023 35.081 13.6307C34.6889 13.6932 34.3537 13.7898 34.0753 13.9205C33.8026 14.0511 33.5923 14.2216 33.4446 14.4318C33.3026 14.6364 33.2315 14.8807 33.2315 15.1648C33.2315 15.5966 33.3849 15.9261 33.6918 16.1534C34.0043 16.3807 34.3991 16.4943 34.8764 16.4943ZM46.0412 23.9091C45.5412 23.9091 45.0696 23.8693 44.6264 23.7898C44.1832 23.7159 43.8026 23.6165 43.4844 23.4915L44.4048 20.4659C44.8139 20.6023 45.1832 20.6818 45.5128 20.7045C45.848 20.7273 46.1349 20.6733 46.3736 20.5426C46.6179 20.4176 46.8054 20.1932 46.9361 19.8693L47.098 19.4773L42.4446 5.90909H46.8082L49.2202 15.25H49.3565L51.8026 5.90909H56.1918L51.2571 20.2528C51.0185 20.9688 50.6804 21.5994 50.2429 22.1449C49.8111 22.696 49.2514 23.1278 48.5639 23.4403C47.8821 23.7528 47.0412 23.9091 46.0412 23.9091ZM59.3132 19.2472C58.6996 19.2472 58.174 19.0312 57.7365 18.5994C57.3047 18.1676 57.0916 17.6449 57.0973 17.0312C57.0916 16.429 57.3047 15.9148 57.7365 15.4886C58.174 15.0568 58.6996 14.8409 59.3132 14.8409C59.8928 14.8409 60.4041 15.0568 60.8473 15.4886C61.2962 15.9148 61.5234 16.429 61.5291 17.0312C61.5234 17.4403 61.4155 17.8125 61.2053 18.1477C61.0007 18.483 60.7308 18.75 60.3956 18.9489C60.0661 19.1477 59.7053 19.2472 59.3132 19.2472Z" fill="white"/>
</svg>
